<?xml version="1.0" encoding="UTF-8" standalone="no"?>
<svg
   width="32"
   version="1.1"
   height="32"
   viewBox="0 0 32 32"
   id="svg15"
   sodipodi:docname="folder-presentation.svg"
   inkscape:version="1.1.1 (3bf5ae0d25, 2021-09-20)"
   xmlns:inkscape="http://www.inkscape.org/namespaces/inkscape"
   xmlns:sodipodi="http://sodipodi.sourceforge.net/DTD/sodipodi-0.dtd"
   xmlns:xlink="http://www.w3.org/1999/xlink"
   xmlns="http://www.w3.org/2000/svg"
   xmlns:svg="http://www.w3.org/2000/svg"
   xmlns:rdf="http://www.w3.org/1999/02/22-rdf-syntax-ns#"
   xmlns:cc="http://creativecommons.org/ns#"
   xmlns:dc="http://purl.org/dc/elements/1.1/">
  <sodipodi:namedview
     pagecolor="#ffffff"
     bordercolor="#666666"
     borderopacity="1"
     objecttolerance="10"
     gridtolerance="10"
     guidetolerance="10"
     inkscape:pageopacity="0"
     inkscape:pageshadow="2"
     inkscape:window-width="1920"
     inkscape:window-height="1007"
     id="namedview17"
     showgrid="true"
     inkscape:zoom="9.8125"
     inkscape:cx="1.4267516"
     inkscape:cy="18.089172"
     inkscape:window-x="0"
     inkscape:window-y="0"
     inkscape:window-maximized="1"
     inkscape:current-layer="g4"
     inkscape:pagecheckerboard="0">
    <inkscape:grid
       type="xygrid"
       id="grid862" />
  </sodipodi:namedview>
  <defs
     id="defs5455">
    <linearGradient
       inkscape:collect="always"
       id="linearGradient991">
      <stop
         style="stop-color:#cccccc;stop-opacity:1"
         offset="0"
         id="stop987" />
      <stop
         style="stop-color:#cccccc;stop-opacity:1"
         offset="0.03132199"
         id="stop1929" />
      <stop
         style="stop-color:#0069a6;stop-opacity:1"
         offset="0.05527586"
         id="stop1263" />
      <stop
         style="stop-color:#0069a6;stop-opacity:1"
         offset="0.10902679"
         id="stop1027" />
      <stop
         style="stop-color:#cccccc;stop-opacity:1"
         offset="1"
         id="stop989" />
    </linearGradient>
    <linearGradient
       inkscape:collect="always"
       xlink:href="#linearGradient991"
       id="linearGradient1482-3"
       x1="386.57144"
       y1="516.39801"
       x2="446.62146"
       y2="516.39801"
       gradientUnits="userSpaceOnUse"
       gradientTransform="matrix(1.3906661,0,0,1.3461641,-466.08419,329.31646)" />
    <linearGradient
       inkscape:collect="always"
       xlink:href="#linearGradient1172"
       id="linearGradient1174"
       x1="413.07144"
       y1="520.94086"
       x2="438.78571"
       y2="520.94086"
       gradientUnits="userSpaceOnUse"
       gradientTransform="matrix(1.3883551,0,0,1.3461641,-465.19079,330.12416)" />
    <linearGradient
       inkscape:collect="always"
       id="linearGradient1172">
      <stop
         style="stop-color:#e5ff80;stop-opacity:1"
         offset="0"
         id="stop1168" />
      <stop
         style="stop-color:#2ad4ff;stop-opacity:1"
         offset="1"
         id="stop1170" />
    </linearGradient>
  </defs>
  <metadata
     id="metadata5458">
    <rdf:RDF>
      <cc:Work
         rdf:about="">
        <dc:format>image/svg+xml</dc:format>
        <dc:type
           rdf:resource="http://purl.org/dc/dcmitype/StillImage" />
      </cc:Work>
    </rdf:RDF>
  </metadata>
  <g
     inkscape:label="Capa 1"
     inkscape:groupmode="layer"
     id="layer1"
     transform="translate(-384.57143,-515.798)">
    <g
       transform="matrix(0.36013848,0,0,0.37142583,359.81878,151.2823)"
       id="g4">
      <path
         d="m 149.33721,1000.7948 h -4.44178 v -1.5899 c 0,-2.76124 -1.24965,-4.12212 -2.29811,-4.77821 -1.12433,-0.70309 -2.22838,-0.73897 -2.43931,-0.73897 h -39.02467 c -0.83576,0 -1.62121,-0.85429 -2.452557,-1.75898 -1.058163,-1.15159 -2.257522,-2.45609 -4.078183,-2.45609 H 77.187601 c -3.238005,0 -5.679969,2.36297 -5.679969,5.49651 v 59.00774 c 0,3.0311 2.547868,5.4965 5.679969,5.4965 h 72.149609 c 3.13212,0 5.67999,-2.4654 5.67999,-5.4965 v -47.6855 c 0,-3.0311 -2.54787,-5.4966 -5.67999,-5.4966 z m 3.03239,53.1821 c 0,1.6181 -1.35999,2.9337 -3.03239,2.9337 H 77.187601 c -1.672385,0 -3.032375,-1.3156 -3.032375,-2.9337 v -59.00774 c 0,-1.72652 1.24702,-2.93364 3.032375,-2.93364 H 94.6026 c 0.632771,0 1.345872,0.7757 2.100429,1.59667 1.072268,1.1661 2.406658,2.61755 4.430311,2.61755 h 39.00877 c 0.39979,0.0107 1.53385,0.17939 1.9504,1.6727 H 81.336493 c -3.3758,0.067 -5.140857,1.7763 -5.140857,5.19356 l 0.155329,46.9859 h 1.609728 c 0,0 -0.334038,0 0.0013,0 0.520689,0 1.342761,0.099 2.110564,-0.4831 1.3794,-1.0473 1.437641,-2.4048 1.425299,-2.7764 l -0.0069,-38.6037 c 0,-5.1257 0,-5.1257 5.295187,-5.1257 l 62.552097,0.2417 c 1.67237,0.01 3.03237,1.3165 3.03237,2.9337 v 47.6855 z"
         id="path2-3-3-6"
         sodipodi:nodetypes="scscsscssssssssscsssssscsccccccsccccsscc"
         style="fill:url(#linearGradient1482-3);fill-opacity:1;stroke-width:0.868295" />
      <path
         id="Heartbeat"
         class="st0"
         d="m 135.66948,1044.0887 c 1.30901,0 2.38003,-1.0384 2.38003,-2.3076 0,-1.2693 -1.07102,-2.3077 -2.38003,-2.3077 -1.30902,0 -2.38004,1.0384 -2.38004,2.3077 0,1.2692 1.07102,2.3076 2.38004,2.3076 z m -24.99039,-27.6924 h 33.32052 v 24.2309 c 0,3.173 -2.67755,5.7692 -5.9501,5.7692 h -27.37042 v -16.1539 h 6.72359 l 2.14204,-5.0193 4.76007,11.4809 3.68906,-8.3654 0.95202,1.8461 h 12.6737 v -2.3077 H 130.4334 l -2.61805,-5.077 -3.45105,7.7886 -4.76007,-11.4809 -3.74856,8.827 h -7.55663 v -2.3077 h 2.38005 z"
         style="clip-rule:evenodd;fill:url(#linearGradient1174);fill-opacity:1;fill-rule:evenodd;stroke-width:0.5859" />
      <path
         id="Heartbeat-s"
         class="st1"
         d="m 141.61957,1018.704 h 2.38004 v 6.9231 h 2.38003 v 2.3077 h -4.76007 z m -4.76007,27.6924 h -23.80038 v 2.3077 h 23.80038 c 3.92706,0 7.14011,-3.1154 7.14011,-6.923 v -11.5386 h -2.38004 v 11.5386 c 0,2.5384 -2.14204,4.6153 -4.76007,4.6153 z m -21.42034,-2.3077 h 3.57006 v -2.3076 h -3.57006 z m 5.95009,0 h 3.57006 v -2.3076 h -3.57006 z"
         style="fill:#f0f0f0;fill-opacity:1;stroke-width:0.5859" />
    </g>
  </g>
</svg>
