<?xml version="1.0" encoding="UTF-8" standalone="no"?>
<svg
   width="32"
   version="1.1"
   height="32"
   viewBox="0 0 32 32"
   id="svg15"
   sodipodi:docname="folder-desktop.svg"
   inkscape:version="1.1.1 (3bf5ae0d25, 2021-09-20)"
   xmlns:inkscape="http://www.inkscape.org/namespaces/inkscape"
   xmlns:sodipodi="http://sodipodi.sourceforge.net/DTD/sodipodi-0.dtd"
   xmlns:xlink="http://www.w3.org/1999/xlink"
   xmlns="http://www.w3.org/2000/svg"
   xmlns:svg="http://www.w3.org/2000/svg"
   xmlns:rdf="http://www.w3.org/1999/02/22-rdf-syntax-ns#"
   xmlns:cc="http://creativecommons.org/ns#"
   xmlns:dc="http://purl.org/dc/elements/1.1/">
  <sodipodi:namedview
     pagecolor="#ffffff"
     bordercolor="#666666"
     borderopacity="1"
     objecttolerance="10"
     gridtolerance="10"
     guidetolerance="10"
     inkscape:pageopacity="0"
     inkscape:pageshadow="2"
     inkscape:window-width="1920"
     inkscape:window-height="1007"
     id="namedview17"
     showgrid="true"
     inkscape:zoom="9.8125"
     inkscape:cx="1.4267516"
     inkscape:cy="18.089172"
     inkscape:window-x="0"
     inkscape:window-y="0"
     inkscape:window-maximized="1"
     inkscape:current-layer="g4"
     inkscape:pagecheckerboard="0">
    <inkscape:grid
       type="xygrid"
       id="grid862" />
  </sodipodi:namedview>
  <defs
     id="defs5455">
    <linearGradient
       inkscape:collect="always"
       id="linearGradient991">
      <stop
         style="stop-color:#cccccc;stop-opacity:1"
         offset="0"
         id="stop987" />
      <stop
         style="stop-color:#cccccc;stop-opacity:1"
         offset="0.03132199"
         id="stop1929" />
      <stop
         style="stop-color:#0069a6;stop-opacity:1"
         offset="0.05527586"
         id="stop1263" />
      <stop
         style="stop-color:#0069a6;stop-opacity:1"
         offset="0.10902679"
         id="stop1027" />
      <stop
         style="stop-color:#cccccc;stop-opacity:1"
         offset="1"
         id="stop989" />
    </linearGradient>
    <linearGradient
       inkscape:collect="always"
       xlink:href="#linearGradient991"
       id="linearGradient1482-3"
       x1="386.57144"
       y1="516.39801"
       x2="446.62146"
       y2="516.39801"
       gradientUnits="userSpaceOnUse"
       gradientTransform="matrix(1.3906665,0,0,1.3461644,-466.08434,329.31631)" />
    <linearGradient
       inkscape:collect="always"
       xlink:href="#linearGradient1104"
       id="linearGradient1106"
       x1="415.57144"
       y1="522.59808"
       x2="440.80042"
       y2="522.59808"
       gradientUnits="userSpaceOnUse"
       gradientTransform="matrix(1.3883555,0,0,1.3461644,-465.19094,330.12401)" />
    <linearGradient
       inkscape:collect="always"
       id="linearGradient1104">
      <stop
         style="stop-color:#00d4aa;stop-opacity:1;"
         offset="0"
         id="stop1100" />
      <stop
         style="stop-color:#2ad4ff;stop-opacity:1"
         offset="1"
         id="stop1102" />
    </linearGradient>
  </defs>
  <metadata
     id="metadata5458">
    <rdf:RDF>
      <cc:Work
         rdf:about="">
        <dc:format>image/svg+xml</dc:format>
        <dc:type
           rdf:resource="http://purl.org/dc/dcmitype/StillImage" />
      </cc:Work>
    </rdf:RDF>
  </metadata>
  <g
     inkscape:label="Capa 1"
     inkscape:groupmode="layer"
     id="layer1"
     transform="translate(-384.57143,-515.798)">
    <g
       transform="matrix(0.36013848,0,0,0.37142583,359.81878,151.2823)"
       id="g4">
      <path
         d="m 149.33722,1000.7947 h -4.44177 v -1.59 c 0,-2.76104 -1.24966,-4.12192 -2.29812,-4.77801 -1.12433,-0.70309 -2.22838,-0.73897 -2.43931,-0.73897 h -39.02468 c -0.83576,0 -1.621203,-0.85429 -2.452551,-1.75898 -1.058163,-1.15159 -2.257521,-2.45609 -4.078183,-2.45609 H 77.187603 c -3.238006,0 -5.679971,2.36297 -5.679971,5.49651 v 59.00754 c 0,3.0311 2.547869,5.4965 5.679971,5.4965 h 72.149617 c 3.13212,0 5.67999,-2.4654 5.67999,-5.4965 v -47.6855 c 0,-3.0311 -2.54787,-5.4965 -5.67999,-5.4965 z m 3.0324,53.182 c 0,1.6181 -1.36,2.9337 -3.0324,2.9337 H 77.187603 c -1.672386,0 -3.032377,-1.3156 -3.032377,-2.9337 v -59.00754 c 0,-1.72652 1.247021,-2.93364 3.032377,-2.93364 h 17.415003 c 0.632771,0 1.345872,0.7757 2.100429,1.59667 1.072269,1.1661 2.406659,2.61755 4.430305,2.61755 h 39.00878 c 0.39979,0.0108 1.53386,0.17939 1.95041,1.67269 H 81.336495 c -3.375801,0.0674 -5.140858,1.77611 -5.140858,5.19337 l 0.155329,46.9859 h 1.609728 c 0,0 -0.334038,0 0.0014,0 0.520689,0 1.342763,0.099 2.110565,-0.483 1.3794,-1.0474 1.437642,-2.4049 1.4253,-2.7765 l -0.0069,-38.6037 c 0,-5.1257 0,-5.1257 5.295187,-5.1257 l 62.552104,0.2417 c 1.67237,0.01 3.03238,1.3165 3.03238,2.9337 v 47.6855 z"
         id="path2-3-3-6"
         sodipodi:nodetypes="scscsscssssssssscsssssscsccccccsccccsscc"
         style="fill:url(#linearGradient1482-3);fill-opacity:1;stroke-width:0.868295" />
      <path
         id="Computer"
         class="st0"
         d="m 144.60759,1018.55 h 2.18917 v 19.3847 c 0,2.3694 -1.97026,4.3078 -4.37835,4.3078 h -30.64847 v -4.3078 h 32.83765 z m -7.66213,30.1541 -4.37835,-2.1539 h -9.85129 v 2.1539 z"
         style="fill:url(#linearGradient1106);fill-opacity:1;stroke-width:0.54286" />
      <path
         id="Computer-s"
         class="st1"
         d="m 113.95912,1037.9347 h -2.18918 v -15.0771 c 0,-2.3692 1.97025,-4.3076 4.37834,-4.3076 h 30.64848 v 2.1539 h -30.64848 c -1.20396,0 -2.18916,0.9691 -2.18916,2.1537 z m 30.64847,0 c 0,2.3694 -1.97026,4.3078 -4.37836,4.3078 h -10.94587 v 2.154 c 0,2.3691 1.97025,4.3076 4.37835,4.3076 h 3.28375 v -2.1539 h -3.28375 c -1.20397,0 -2.18919,-0.9691 -2.18919,-2.1537 h 8.75671 c 3.61223,0 6.56753,-2.9078 6.56753,-6.4618 z"
         style="fill:#f0f0f0;fill-opacity:1;stroke-width:0.54286" />
    </g>
  </g>
</svg>
